<svg xmlns="http://www.w3.org/2000/svg" xmlns:xlink="http://www.w3.org/1999/xlink" version="1.1" data-diagram-type="DESCRIPTION" style="width:653px;height:366px;background:#FFFFFF;" width="653px" height="366px" viewBox="0 0 653 366" zoomAndPan="magnify" preserveAspectRatio="none" contentStyleType="text/css"><?plantuml 1.2026.7beta3?><defs/><g><g class="title" data-source-line="1"><text x="196.5447" y="22.9951" fill="#000000" font-size="14" lengthAdjust="spacing" textLength="253.7705" font-weight="700" font-family="sans-serif">Use-Case Diagramm - range-sim</text></g><!--cluster range-sim--><g class="cluster" data-qualified-name="range-sim" id="ent0002" data-source-line="7"><rect x="116.17" y="44.2969" width="523.69" height="308" fill="none" style="stroke:#181818;stroke-width:1;" rx="2.5" ry="2.5"/><text x="338.3324" y="59.292" fill="#000000" font-size="14" lengthAdjust="spacing" textLength="79.3652" font-weight="700" font-family="sans-serif">range-sim</text></g><!--entity UC1--><g class="entity" data-qualified-name="range-sim.UC1" id="ent0003" data-source-line="8"><ellipse cx="223.2155" cy="122.294" rx="78.7855" ry="18.1571" fill="#F1F1F1" style="stroke:#181818;stroke-width:0.5;"/><text x="159.3131" y="126.9424" fill="#000000" font-size="14" lengthAdjust="spacing" textLength="127.8047" font-family="sans-serif">Programm starten</text></g><!--entity UC2--><g class="entity" data-qualified-name="range-sim.UC2" id="ent0004" data-source-line="9"><ellipse cx="223.2163" cy="212.2961" rx="91.0463" ry="20.6093" fill="#F1F1F1" style="stroke:#181818;stroke-width:0.5;"/><text x="145.1636" y="216.9446" fill="#000000" font-size="14" lengthAdjust="spacing" textLength="156.1055" font-family="sans-serif">Reichweite berechnen</text></g><!--entity UC3--><g class="entity" data-qualified-name="range-sim.UC3" id="ent0005" data-source-line="10"><ellipse cx="531.5646" cy="318.2978" rx="79.0046" ry="18.2009" fill="#F1F1F1" style="stroke:#181818;stroke-width:0.5;"/><text x="467.4025" y="322.9462" fill="#000000" font-size="14" lengthAdjust="spacing" textLength="128.3242" font-family="sans-serif">Fahrzeug waehlen</text></g><!--entity UC4--><g class="entity" data-qualified-name="range-sim.UC4" id="ent0006" data-source-line="11"><ellipse cx="531.5564" cy="248.2942" rx="74.0864" ry="17.2173" fill="#F1F1F1" style="stroke:#181818;stroke-width:0.5;"/><text x="473.3039" y="252.9426" fill="#000000" font-size="14" lengthAdjust="spacing" textLength="116.5049" font-family="sans-serif">Strecke waehlen</text></g><!--entity UC5--><g class="entity" data-qualified-name="range-sim.UC5" id="ent0007" data-source-line="12"><ellipse cx="531.5637" cy="176.2996" rx="87.0637" ry="19.8127" fill="#F1F1F1" style="stroke:#181818;stroke-width:0.5;"/><text x="458.0329" y="180.948" fill="#000000" font-size="14" lengthAdjust="spacing" textLength="147.0615" font-family="sans-serif">Wetterprofil waehlen</text></g><!--entity UC6--><g class="entity" data-qualified-name="range-sim.UC6" id="ent0008" data-source-line="13"><ellipse cx="531.5571" cy="100.2963" rx="92.2971" ry="20.8594" fill="#F1F1F1" style="stroke:#181818;stroke-width:0.5;"/><text x="452.0961" y="104.9447" fill="#000000" font-size="14" lengthAdjust="spacing" textLength="158.9219" font-family="sans-serif">Ladezustand eingeben</text></g><!--entity Benutzer--><g class="entity" data-qualified-name="Benutzer" id="ent0001" data-source-line="5"><ellipse cx="37.5854" cy="92.6469" rx="8" ry="8" fill="#F1F1F1" style="stroke:#181818;stroke-width:0.5;"/><path d="M37.5854,100.6469 L37.5854,127.6469 M24.5854,108.6469 L50.5854,108.6469 M37.5854,127.6469 L24.5854,142.6469 M37.5854,127.6469 L50.5854,142.6469" style="stroke:#181818;stroke-width:0.5;" fill="none"/><text x="6" y="157.142" fill="#000000" font-size="14" lengthAdjust="spacing" textLength="63.1709" font-family="sans-serif">Benutzer</text></g><!--link Benutzer to UC1--><g class="link" data-entity-1="ent0001" data-entity-2="ent0003" id="lnk9" data-source-line="16" data-link-type="dependency"><path d="M69.32,122.2969 C89.84,122.2969 112.82,122.2969 139.23,122.2969" style="stroke:#181818;stroke-width:1;" fill="none" id="Benutzer-to-UC1"/><polygon points="144.23,122.2969,135.23,118.2969,139.23,122.2969,135.23,126.2969,144.23,122.2969" fill="#181818" style="stroke:#181818;stroke-width:1;stroke-linejoin:miter;stroke-miterlimit:10;"/></g><!--link UC2 to UC1--><g class="link" data-entity-1="ent0004" data-entity-2="ent0003" id="lnk10" data-source-line="18" data-link-type="dependency"><path d="M223.22,191.4269 C223.22,176.1569 223.22,160.6269 223.22,145.9169" style="stroke:#181818;stroke-width:1;stroke-dasharray:7,7;" fill="none" id="UC2-to-UC1"/><polygon points="223.22,140.9169,219.22,149.9169,223.22,145.9169,227.22,149.9169,223.22,140.9169" fill="#181818" style="stroke:#181818;stroke-width:1;stroke-linejoin:miter;stroke-miterlimit:10;"/><text x="181.22" y="170.6338" fill="#000000" font-size="13" lengthAdjust="spacing" textLength="61.1851" font-family="sans-serif">«extend»</text></g><!--link UC2 to UC3--><g class="link" data-entity-1="ent0004" data-entity-2="ent0005" id="lnk11" data-source-line="20" data-link-type="dependency"><path d="M260.24,231.5669 C283.69,243.5669 315.22,258.6869 344.26,269.2969 C386.2,284.6169 430.189,296.1583 467.349,304.7683" style="stroke:#181818;stroke-width:1;stroke-dasharray:7,7;" fill="none" id="UC2-to-UC3"/><polygon points="472.22,305.8969,464.3552,299.9686,467.349,304.7683,462.5494,307.7622,472.22,305.8969" fill="#181818" style="stroke:#181818;stroke-width:1;stroke-linejoin:miter;stroke-miterlimit:10;"/><text x="345.26" y="265.3638" fill="#000000" font-size="13" lengthAdjust="spacing" textLength="63.0068" font-family="sans-serif">«include»</text></g><!--link UC2 to UC4--><g class="link" data-entity-1="ent0004" data-entity-2="ent0006" id="lnk12" data-source-line="21" data-link-type="dependency"><path d="M285.88,227.6269 C304.53,231.7269 325.14,235.7269 344.26,238.2969 C381.34,243.2769 417.8834,245.6126 452.3234,246.8826" style="stroke:#181818;stroke-width:1;stroke-dasharray:7,7;" fill="none" id="UC2-to-UC4"/><polygon points="457.32,247.0669,448.4735,242.7379,452.3234,246.8826,448.1787,250.7325,457.32,247.0669" fill="#181818" style="stroke:#181818;stroke-width:1;stroke-linejoin:miter;stroke-miterlimit:10;"/><text x="345.26" y="234.3638" fill="#000000" font-size="13" lengthAdjust="spacing" textLength="63.0068" font-family="sans-serif">«include»</text></g><!--link UC2 to UC5--><g class="link" data-entity-1="ent0004" data-entity-2="ent0007" id="lnk13" data-source-line="22" data-link-type="dependency"><path d="M304.71,202.8369 C350.62,197.4469 402.9141,191.3003 448.2841,185.9703" style="stroke:#181818;stroke-width:1;stroke-dasharray:7,7;" fill="none" id="UC2-to-UC5"/><polygon points="453.25,185.3869,443.8448,182.4643,448.2841,185.9703,444.7782,190.4096,453.25,185.3869" fill="#181818" style="stroke:#181818;stroke-width:1;stroke-linejoin:miter;stroke-miterlimit:10;"/><text x="345.26" y="187.3638" fill="#000000" font-size="13" lengthAdjust="spacing" textLength="63.0068" font-family="sans-serif">«include»</text></g><!--link UC2 to UC6--><g class="link" data-entity-1="ent0004" data-entity-2="ent0008" id="lnk14" data-source-line="23" data-link-type="dependency"><path d="M270.29,194.3269 C292.58,185.7169 319.76,175.3269 344.26,166.2969 C389.98,149.4469 437.5793,132.6246 475.1093,119.5246" style="stroke:#181818;stroke-width:1;stroke-dasharray:7,7;" fill="none" id="UC2-to-UC6"/><polygon points="479.83,117.8769,470.0146,117.0663,475.1093,119.5246,472.651,124.6194,479.83,117.8769" fill="#181818" style="stroke:#181818;stroke-width:1;stroke-linejoin:miter;stroke-miterlimit:10;"/><text x="345.26" y="140.3638" fill="#000000" font-size="13" lengthAdjust="spacing" textLength="63.0068" font-family="sans-serif">«include»</text></g><?plantuml-src TP1DIyD048Rlyok6t2DeFmvISh3YoOCenVCsUPiC9XkPdL29-D_THerieNjQU9vvPzyriHQy2yYtBe3lnTNgkevpLkThv44weXO7O-jPfMwCAr6K9hqdSgNrodVmWurGeXE8Op4ncySp_YIEPmWeJoko9-r_TWHpQl0Pky2xxNLgFKFAvWWny1unj_6pUPEQ3wxH4KFDHuUcdQr5QhrO37d3cRHCfLUOGT-rFqXxPgvIyz5L68VOm5SCYLNtixccBwA_F-4yBwPo5D_DLzETRtcpmKUiNXN5BvZ8OYBYotQe4D4_MLuagujadP9l?></g></svg>